<?xml version="1.0" encoding="utf-8"?>
<!-- Generator: Adobe Illustrator 23.1.1, SVG Export Plug-In . SVG Version: 6.00 Build 0)  -->
<svg version="1.1" id="logo" xmlns="http://www.w3.org/2000/svg" xmlns:xlink="http://www.w3.org/1999/xlink" x="0px" y="0px"
	 viewBox="0 0 309.3 357.2" style="enable-background:new 0 0 309.3 357.2;" xml:space="preserve">
<style type="text/css">
	.st0{fill:#E50C8F;}
	.st1{fill:#CB118B;}
	.st2{fill:#FD32A8;}
	.st3{fill:#A1076C;}
	.st4{fill:#A6086F;}
	.st5{fill:#BE097D;}
	.st6{fill:#FF51AE;}
	.st7{fill:#C3067D;}
</style>
<g id="poly">
	<polygon class="st0" points="309.3,267.9 309.3,89.3 154.6,0 0,89.3 0,267.9 154.6,357.2 	"/>
	<polygon class="st1" points="0,267.9 154.6,357.2 51.5,267.9 	"/>
	<polygon class="st2" points="0,89.3 0,267.9 51.5,267.9 	"/>
	<polygon class="st1" points="154.6,89.3 309.3,89.3 154.6,0 	"/>
	<polygon class="st0" points="154.6,89.3 51.5,267.9 256.7,267.9 	"/>
	<polygon class="st3" points="256.7,267.9 309.3,267.9 309.3,89.3 	"/>
	<polygon class="st4" points="154.6,357.2 309.3,267.9 256.7,267.9 	"/>
	<path d="M309.3,89.3L309.3,89.3L309.3,89.3z"/>
	<path d="M154.6,89.3L154.6,89.3L154.6,89.3z"/>
	<polygon class="st5" points="256.7,267.9 309.3,89.3 309.3,89.3 154.6,89.3 	"/>
	<polygon class="st2" points="154.6,0 0,89.3 154.6,89.3 	"/>
	<polygon class="st6" points="154.6,89.3 0,89.3 51.5,267.9 	"/>
	<polygon class="st7" points="51.5,267.9 154.6,357.2 256.7,267.9 	"/>
</g>
</svg>
